<svg id="visual" viewBox="0 0 900 600" width="900" height="600" xmlns="http://www.w3.org/2000/svg" xmlns:xlink="http://www.w3.org/1999/xlink" version="1.1"><g transform="translate(467.2355043981749 289.27952113450465)"><path d="M113.9 -141.8C137 -116.4 137.8 -70.4 140.3 -28.8C142.9 12.9 147.2 50.2 135.6 85.9C124.1 121.6 96.6 155.7 58.9 175.1C21.3 194.5 -26.4 199.2 -70.4 186.3C-114.4 173.4 -154.6 143 -169.8 104.1C-185.1 65.3 -175.3 18.1 -165.5 -27.8C-155.7 -73.6 -146 -118 -118.4 -142.6C-90.8 -167.3 -45.4 -172.1 0 -172.1C45.4 -172.1 90.8 -167.3 113.9 -141.8" fill="#CCCCCC"></path></g></svg>